<svg width="32" height="32" viewBox="0 0 32 32" fill="none" xmlns="http://www.w3.org/2000/svg">
    <path d="M30 19H26V15H24V24H8V8L17 7.9991V6H13V2H11V6H8C7.46973 6.00053 6.96133 6.21141 6.58637 6.58637C6.21141 6.96133 6.00053 7.46973 6 8V11H2V13H6V19H2V21H6V24C6.00061 24.5302 6.21152 25.0386 6.58646 25.4135C6.9614 25.7885 7.46975 25.9994 8 26H11V30H13V26H19V30H21V26H24C24.5302 25.9993 25.0385 25.7883 25.4134 25.4134C25.7883 25.0385 25.9993 24.5302 26 24V21H30V19Z" fill="#E9E9E9"/>
    <path d="M21 21H11V11H21V21ZM13 19H19V13H13V19Z" fill="#E9E9E9"/>
    <path d="M31 13H29C28.9969 10.3488 27.9423 7.80704 26.0676 5.93235C24.193 4.05766 21.6512 3.0031 19 3V1C22.1815 1.00347 25.2318 2.26886 27.4815 4.51855C29.7311 6.76823 30.9965 9.81847 31 13V13Z" fill="#E9E9E9"/>
    <path d="M26 13H24C23.9984 11.6744 23.4712 10.4035 22.5338 9.46619C21.5965 8.52885 20.3256 8.00156 19 8V6C20.8558 6.00225 22.635 6.74047 23.9473 8.05274C25.2595 9.365 25.9978 11.1442 26 13V13Z" fill="#E9E9E9"/>
</svg>
