<svg xmlns="http://www.w3.org/2000/svg" viewBox="0 0 92.47 92.47">
  <defs>
    <style>
      .cls-1 {
        fill: #a3a3a3;
      }

      .cls-2 {
        fill: #fff;
      }
    </style>
  </defs>
  <g id="Layer_2" data-name="Layer 2">
    <g id="Layer_1-2" data-name="Layer 1">
      <polygon class="cls-1" points="47.98 65.43 59.32 65.72 61.12 20.13 49.44 18.9 47.98 65.43" />
      <polygon class="cls-1" points="29.14 64.87 33.15 26.75 44.78 26.75 40.17 65.43 29.14 64.87" />
      <path class="cls-2"
        d="M48,0a46.19,46.19,0,0,0-19,3.3l4.1,10.89A34.62,34.62,0,0,1,76.86,62.36L61.12,20.13,49.43,18.9,63.32,56.4,73.56,83.54A46.24,46.24,0,0,0,48,0ZM59.32,78.28A34.61,34.61,0,0,1,15.6,30.14L29.06,64.87h.08l11,.56-5.64-15-6.7-17.87L18.76,9.05A46.25,46.25,0,0,0,63.51,89.14Z" />
      <polygon class="cls-2"
        points="59.32 65.72 47.98 65.43 44.07 55.24 38.33 40.25 33.15 26.75 44.78 26.75 49.82 40.25 59.32 65.72" />
    </g>
  </g>
</svg>